HIERARCHY
ROOT Hips
{
	OFFSET 0.00000 0.00000 0.00000
	CHANNELS 6 Xposition Yposition Zposition Zrotation Yrotation Xrotation 
	JOINT RightUpLegDummy
	{
		OFFSET 0 0 0
		CHANNELS 3 Zrotation Yrotation Xrotation
		JOINT RightUpLeg
		{
			OFFSET -3.52197 -3.41223 0.04002
			CHANNELS 3 Zrotation Yrotation Xrotation
			JOINT RightLeg
			{
				OFFSET 0.00006 -17.42390 1.60435
				CHANNELS 3 Zrotation Yrotation Xrotation
				JOINT RightFoot
				{
					OFFSET 0.06153 -16.50078 -1.63901
					CHANNELS 3 Zrotation Yrotation Xrotation
					JOINT RightToes
					{
						OFFSET 0.00298 -1.73825 3.34613
						CHANNELS 3 Zrotation Yrotation Xrotation
						End Site
						{
							OFFSET 0.00480 -0.05416 3.85043
						}
					}
				}
			}
		}
	}
	JOINT SpineDummy
	{
		OFFSET 0 0 0
		CHANNELS 3 Zrotation Yrotation Xrotation
		JOINT Spine
		{
			OFFSET 0.00000 4.68130 0.00000
			CHANNELS 3 Zrotation Yrotation Xrotation
			JOINT Spine1
			{
				OFFSET -0.00000 10.10138 0.05002
				CHANNELS 3 Zrotation Yrotation Xrotation
				JOINT HEadDummy
				{
					OFFSET 0 0 0
					CHANNELS 3 Zrotation Yrotation Xrotation
					JOINT Head
					{
						OFFSET -0.00000 3.43865 0.00438
						CHANNELS 3 Zrotation Yrotation Xrotation
						End Site
						{
							OFFSET -0.11417 5.02924 0.98962
						}
					}
				}
				JOINT LeftShoulder1Dummy
				{
					OFFSET 0 0 0
					CHANNELS 3 Zrotation Yrotation Xrotation
					JOINT LeftShoulder1
					{
						OFFSET 3.53937 -0.14262 -0.08662
						CHANNELS 3 Zrotation Yrotation Xrotation
						JOINT LeftArm
						{
							OFFSET 4.04833 -0.00133 0.12681
							CHANNELS 3 Zrotation Yrotation Xrotation
							JOINT LeftForeArm
							{
								OFFSET 10.33880 -0.01036 -0.55515
								CHANNELS 3 Zrotation Yrotation Xrotation
								JOINT LeftHand
								{
									OFFSET 8.69677 0.07543 0.40060
									CHANNELS 3 Zrotation Yrotation Xrotation
									End Site
									{
										OFFSET 5.28377 -0.21905 0.59205
									}
								}
							}
						}
					}
				}
				JOINT RightShoulderDummy
				{
					OFFSET 0 0 0
					CHANNELS 3 Zrotation Yrotation Xrotation
					JOINT RightShoulder
					{
						OFFSET -3.53937 -0.14262 -0.08660
						CHANNELS 3 Zrotation Yrotation Xrotation
						JOINT RightArm
						{
							OFFSET -4.04833 -0.00133 0.12683
							CHANNELS 3 Zrotation Yrotation Xrotation
							JOINT RightForeArm
							{
								OFFSET -10.37987 -0.01039 -0.55511
								CHANNELS 3 Zrotation Yrotation Xrotation
								JOINT RightHand
								{
									OFFSET -8.67398 0.07538 0.40058
									CHANNELS 3 Zrotation Yrotation Xrotation
									End Site
									{
										OFFSET -5.24810 -0.21916 0.59204
									}
								}
							}
						}
					}
				}
			}
		}
	}
	JOINT LeftUpLegDummy
	{
		OFFSET 0 0 0
		CHANNELS 3 Zrotation Yrotation Xrotation
		JOINT LeftUpLeg
		{
			OFFSET 3.52197 -3.41223 0.04002
			CHANNELS 3 Zrotation Yrotation Xrotation
			JOINT LeftLeg
			{
				OFFSET -0.00012 -17.42399 1.60337
				CHANNELS 3 Zrotation Yrotation Xrotation
				JOINT LeftFoot
				{
					OFFSET -0.09972 -16.50070 -1.63802
					CHANNELS 3 Zrotation Yrotation Xrotation
					JOINT LeftToes
					{
						OFFSET -0.01575 -1.73823 3.34611
						CHANNELS 3 Zrotation Yrotation Xrotation
						End Site
						{
							OFFSET 0.03150 -0.01868 3.85031
						}
					}
				}
			}
		}
	}
}
MOTION
Frames: 19
Frame Time: 0.033333
-2.6251 38.6385 -49.5113 -0.6062 3.8395 -3.9512 0.0000 0.0000 0.0000 1.7279 1.1490 -17.8723 -1.4300 -12.3423 1.2777 2.6547 -0.2539 -0.2948 0.0000 -0.0000 0.0000 0.0000 0.0000 0.0000 0.5161 -1.9265 6.9687 4.3504 -2.8028 -0.2623 -0.0000 0.0000 -0.0000 1.7149 -2.7560 10.7507 -0.0000 0.0000 -0.0000 -35.0788 -2.3777 2.4189 -42.6148 -15.8995 -22.6174 -8.0514 5.3012 42.6554 11.2432 -3.2727 -0.8116 -0.0000 0.0000 -0.0000 35.1993 5.2181 3.5957 38.6427 -2.9275 -23.9775 8.3320 -4.4993 22.4398 -10.0250 1.4258 -0.5762 0.0000 0.0000 0.0000 0.2617 7.5145 16.2118 -0.1684 -0.5762 16.9559 2.2263 0.2074 -16.8029 0.0000 0.0000 -0.0000
-2.7137 38.5925 -48.1353 -1.1107 4.6980 -4.3045 0.0000 0.0000 0.0000 2.1627 0.7108 -17.1737 -1.8877 -14.1221 4.0469 1.5409 -0.2025 4.1482 0.0000 -0.0000 0.0000 0.0000 0.0000 0.0000 1.8995 -2.1956 6.3477 3.6757 -2.9484 -0.3062 -0.0000 0.0000 -0.0000 1.4281 -2.9065 11.9946 -0.0000 0.0000 -0.0000 -35.3648 -2.3389 2.4201 -42.6562 -14.1869 -23.8202 -7.4501 5.2711 44.0510 11.3324 -2.8066 -0.7764 -0.0000 0.0000 -0.0000 35.4075 5.2463 3.6259 38.6661 -4.2934 -24.6958 8.0821 -5.5146 22.8080 -9.6154 1.2005 -0.5351 0.0000 0.0000 0.0000 2.0996 8.2773 16.8565 -0.6090 -2.0037 20.4140 -0.1385 0.0850 -14.6439 0.0000 0.0000 -0.0000
-2.8013 38.5463 -46.8227 -1.8798 4.7996 -4.7450 0.0000 0.0000 0.0000 2.8620 0.3066 -16.5190 -1.9047 -13.9634 7.0340 2.6803 -0.3937 6.4683 0.0000 -0.0000 0.0000 0.0000 0.0000 0.0000 3.7340 -2.1606 5.9323 2.8489 -2.7709 -0.4313 -0.0000 0.0000 -0.0000 1.1567 -2.8901 13.4427 -0.0000 0.0000 -0.0000 -35.3743 -2.2881 2.3996 -43.0718 -12.4445 -24.9353 -6.8609 5.2521 44.9700 11.3282 -2.6064 -0.7580 -0.0000 0.0000 -0.0000 35.3645 5.2368 3.6181 38.7421 -5.0148 -25.1799 7.8722 -5.6656 23.3107 -8.9806 1.0458 -0.4881 0.0000 0.0000 0.0000 4.4524 9.6611 16.3673 -1.1502 -2.4502 25.7708 -3.0530 0.0752 -11.2115 0.0000 0.0000 -0.0000
-2.9271 38.4836 -45.6187 -2.5407 4.4269 -5.2457 0.0000 0.0000 0.0000 3.7420 0.1035 -16.0554 -1.9598 -12.8013 10.6415 3.6157 -0.5245 5.8310 0.0000 -0.0000 0.0000 0.0000 0.0000 0.0000 4.9459 -1.9133 6.0157 2.5450 -2.4672 -0.6904 -0.0000 0.0000 -0.0000 1.0437 -2.6964 14.5471 -0.0000 0.0000 -0.0000 -34.9637 -2.2776 2.3711 -44.0072 -10.8313 -25.7114 -6.4657 5.2540 45.0256 10.9004 -2.7145 -0.7377 -0.0000 0.0000 -0.0000 35.1648 5.2100 3.5893 38.7296 -4.9379 -25.3527 7.7584 -5.6441 23.5907 -8.3244 0.9579 -0.4461 0.0000 0.0000 0.0000 6.8341 11.6169 14.6225 -1.4112 -2.2445 32.8801 -5.7305 0.3309 -5.4727 0.0000 0.0000 -0.0000
-3.1030 38.4128 -44.5532 -2.9340 4.4538 -5.8184 0.0000 0.0000 0.0000 4.5884 -0.0331 -15.5821 -2.3423 -12.0258 14.3085 2.6349 -0.3347 3.5567 0.0000 -0.0000 0.0000 0.0000 0.0000 0.0000 4.9844 -1.8268 6.7774 3.0973 -2.4374 -1.2290 -0.0000 0.0000 -0.0000 1.2461 -2.4463 14.8793 -0.0000 0.0000 -0.0000 -34.4892 -2.3385 2.3678 -44.9344 -9.5689 -25.8216 -6.5057 5.2691 44.4430 9.9932 -2.8901 -0.6879 -0.0000 0.0000 -0.0000 35.0809 5.2034 3.5791 38.3945 -4.2126 -25.0365 7.8840 -5.6777 23.2005 -7.7899 0.9444 -0.4159 0.0000 0.0000 0.0000 8.4591 12.5049 11.6054 -0.6796 -1.0463 40.9074 -7.1006 0.8276 2.2904 0.0000 0.0000 -0.0000
-3.2906 38.3716 -43.5922 -3.1002 5.1761 -6.4176 0.0000 0.0000 0.0000 5.1438 -0.2541 -14.8039 -2.9149 -12.1576 17.2311 0.9359 -0.0965 0.9581 0.0000 -0.0000 0.0000 0.0000 0.0000 0.0000 4.3251 -1.9813 7.8575 4.0247 -2.6915 -1.8182 -0.0000 0.0000 -0.0000 1.8132 -2.4168 14.3574 -0.0000 0.0000 -0.0000 -34.3667 -2.4368 2.4002 -45.2301 -9.1525 -25.3261 -6.8375 5.2671 44.4098 9.1642 -3.0169 -0.6374 -0.0000 0.0000 -0.0000 35.1421 5.2107 3.5876 37.8446 -3.0487 -24.2404 8.2564 -5.4320 22.1907 -7.7233 1.0709 -0.4198 0.0000 0.0000 0.0000 9.0228 11.9404 7.7333 1.7458 0.9128 48.4560 -6.4857 1.0839 8.6589 0.0000 0.0000 -0.0000
-3.4365 38.3992 -42.6228 -3.0807 5.9133 -6.9144 0.0000 0.0000 0.0000 5.4200 -0.5899 -13.5186 -3.3290 -12.3332 19.0582 0.2152 -0.0222 -1.4972 0.0000 -0.0000 0.0000 0.0000 0.0000 0.0000 3.8109 -2.0379 8.5753 4.5137 -2.7967 -2.0209 -0.0000 0.0000 -0.0000 2.5598 -2.8153 13.4654 -0.0000 0.0000 -0.0000 -34.5256 -2.5083 2.4387 -44.9368 -9.8467 -24.7025 -7.0530 5.2316 45.6653 9.0797 -3.2524 -0.6481 -0.0000 0.0000 -0.0000 35.1460 5.2016 3.5842 37.4377 -1.5946 -23.2068 8.6951 -3.9376 21.2034 -8.4763 1.3520 -0.4805 0.0000 0.0000 0.0000 8.7412 10.9888 3.7469 5.9514 3.1351 54.4110 -4.0936 0.7161 9.8578 0.0000 0.0000 -0.0000
-3.5291 38.4837 -41.6102 -2.8988 5.9862 -7.2588 0.0000 0.0000 0.0000 5.5799 -0.8422 -11.8473 -3.4264 -11.9332 20.0248 0.1066 -0.0209 -3.6191 0.0000 -0.0000 0.0000 0.0000 0.0000 0.0000 3.8050 -1.7515 8.8225 4.2341 -2.4555 -1.9167 -0.0000 0.0000 -0.0000 3.1715 -3.5218 12.9685 -0.0000 0.0000 -0.0000 -34.6041 -2.5245 2.4501 -44.6019 -11.1703 -24.2183 -7.0830 5.1908 47.1415 9.7506 -3.5401 -0.7201 -0.0000 0.0000 -0.0000 35.0031 5.1724 3.5595 37.2698 0.0895 -22.1408 9.0693 -2.0972 20.5475 -9.7540 1.6477 -0.5771 0.0000 0.0000 0.0000 7.9763 10.5369 0.1772 10.7142 5.1083 57.9850 -1.3028 0.1663 6.0309 0.0000 0.0000 -0.0000
-3.5885 38.5713 -40.6070 -2.6263 5.4803 -7.5643 0.0000 0.0000 0.0000 5.7289 -0.9761 -10.0585 -3.3811 -11.2147 20.6219 -0.5144 0.0062 -5.3722 0.0000 -0.0000 0.0000 0.0000 0.0000 0.0000 4.1677 -1.2799 9.0657 3.4298 -1.8291 -1.9370 -0.0000 0.0000 -0.0000 3.4669 -4.1596 13.1828 -0.0000 0.0000 -0.0000 -34.4722 -2.5041 2.4338 -44.5528 -12.3226 -23.5791 -7.3240 5.1932 46.9717 10.5789 -3.5822 -0.7874 -0.0000 0.0000 -0.0000 34.8283 5.1458 3.5333 37.0715 2.0471 -21.0490 9.3956 -0.3937 20.1206 -10.7066 1.8315 -0.6504 0.0000 0.0000 0.0000 6.9920 10.2908 -2.8216 13.7334 6.4380 58.7697 0.6738 -0.0794 0.8370 0.0000 0.0000 -0.0000
-3.6273 38.6596 -39.6278 -2.3084 4.8029 -7.9299 0.0000 0.0000 0.0000 5.7895 -1.1588 -8.0752 -3.2339 -10.5388 20.8054 -1.4675 0.0323 -6.8554 0.0000 -0.0000 0.0000 0.0000 0.0000 0.0000 4.6066 -0.8726 9.4403 2.4827 -1.2266 -2.0758 -0.0000 0.0000 -0.0000 3.4942 -4.4108 13.7101 -0.0000 0.0000 -0.0000 -34.3050 -2.4808 2.4141 -44.6707 -12.9936 -22.4711 -8.0307 5.2478 44.7186 11.1573 -3.3944 -0.8159 -0.0000 0.0000 -0.0000 34.7019 5.1305 3.5159 36.6343 4.3536 -19.8619 9.7437 1.0531 19.6838 -10.8994 1.9914 -0.6764 0.0000 0.0000 0.0000 5.8606 9.6167 -5.2718 14.2563 7.2790 56.9160 1.9835 -0.1327 -2.8148 0.0000 0.0000 -0.0000
-3.6537 38.7553 -38.6587 -1.9190 4.0779 -8.2945 0.0000 0.0000 0.0000 5.6585 -1.4427 -5.9538 -2.9551 -9.8112 20.6583 -1.9254 0.0229 -8.2070 0.0000 -0.0000 0.0000 0.0000 0.0000 0.0000 4.8581 -0.5419 9.6652 1.6959 -0.7306 -1.9956 -0.0000 0.0000 -0.0000 3.3674 -4.2141 14.0418 -0.0000 0.0000 -0.0000 -34.2680 -2.4673 2.4069 -44.7726 -13.4310 -21.0783 -8.9384 5.3155 41.7166 11.5970 -3.3845 -0.8486 -0.0000 0.0000 -0.0000 34.5473 5.1101 3.4941 36.0629 6.9707 -18.5914 10.1140 2.3042 19.2470 -10.7188 2.2222 -0.6845 0.0000 0.0000 0.0000 4.6489 8.5421 -7.2258 13.7553 8.2869 52.9477 2.3297 -0.0945 -5.2679 0.0000 0.0000 -0.0000
-3.6795 38.8370 -37.7007 -1.5002 3.3262 -8.5437 0.0000 0.0000 0.0000 5.4280 -1.7203 -4.0017 -2.6746 -8.9424 20.5912 -1.9537 -0.0031 -9.4682 0.0000 -0.0000 0.0000 0.0000 0.0000 0.0000 4.8103 -0.2154 9.5761 1.2651 -0.3133 -1.6205 -0.0000 0.0000 -0.0000 3.1358 -3.7257 14.1059 -0.0000 0.0000 -0.0000 -34.3417 -2.4561 2.4087 -44.8790 -13.9122 -19.7497 -9.6915 5.3637 39.3434 12.0768 -3.7835 -0.9237 -0.0000 0.0000 -0.0000 34.2857 5.0718 3.4559 35.5491 9.6854 -17.3376 10.4532 3.4501 18.9965 -10.6957 2.3903 -0.6972 0.0000 0.0000 0.0000 3.6093 7.4821 -8.8022 13.2439 9.8433 47.4624 1.2868 -0.0019 -7.3386 0.0000 0.0000 -0.0000
-3.7066 38.9085 -36.7610 -1.2137 2.7726 -8.6347 0.0000 0.0000 0.0000 5.2969 -1.9169 -2.1929 -2.4880 -8.2587 20.4075 -2.1286 -0.0244 -10.5452 0.0000 -0.0000 0.0000 0.0000 0.0000 0.0000 4.6134 0.0346 9.2689 1.1597 -0.0415 -1.1791 -0.0000 0.0000 -0.0000 2.8690 -3.1982 14.0697 -0.0000 0.0000 -0.0000 -34.4230 -2.4497 2.4143 -45.0701 -14.5061 -18.5883 -10.2227 5.3900 37.9005 12.5824 -4.2919 -1.0153 -0.0000 0.0000 -0.0000 33.9935 5.0274 3.4128 35.1215 12.1723 -16.1632 10.7176 4.6063 18.9075 -10.8768 2.3671 -0.7074 0.0000 0.0000 0.0000 2.9306 6.5040 -10.1803 12.3483 11.5377 41.0212 0.1198 0.0490 -8.4048 0.0000 0.0000 -0.0000
-3.7256 38.9997 -35.8511 -1.1553 2.5667 -8.5625 0.0000 0.0000 0.0000 5.3567 -2.0068 -0.2602 -2.3634 -8.0656 19.4696 -2.3777 -0.0415 -11.3289 0.0000 -0.0000 0.0000 0.0000 0.0000 0.0000 4.5241 0.1317 8.9010 1.1263 0.0595 -0.8769 -0.0000 0.0000 -0.0000 2.7066 -2.8487 14.0022 -0.0000 0.0000 -0.0000 -34.4449 -2.4621 2.4190 -45.3353 -15.2102 -17.6035 -10.5897 5.4053 37.0844 12.9862 -4.5325 -1.0744 -0.0000 0.0000 -0.0000 33.8304 5.0016 3.3886 34.7266 14.1187 -14.8251 10.8489 5.9836 18.4325 -11.0284 2.3072 -0.7124 0.0000 0.0000 0.0000 2.5407 5.5052 -11.5004 10.7558 12.8042 34.0064 0.2632 0.0379 -7.8766 0.0000 0.0000 -0.0000
-3.7349 39.0984 -34.9778 -1.2492 2.4987 -8.3099 0.0000 0.0000 0.0000 5.5702 -2.0063 1.6648 -2.2798 -8.1560 17.9679 -2.3289 -0.0550 -11.8884 0.0000 -0.0000 0.0000 0.0000 0.0000 0.0000 4.5889 0.1753 8.5253 1.0032 0.1229 -0.7405 -0.0000 0.0000 -0.0000 2.7278 -2.7157 13.9152 -0.0000 0.0000 -0.0000 -34.3883 -2.4834 2.4200 -45.6501 -15.9874 -16.9174 -10.7794 5.3908 36.6943 13.1232 -4.5293 -1.0860 -0.0000 0.0000 -0.0000 33.8324 4.9988 3.3864 34.4265 15.3902 -12.9481 10.7631 7.6629 16.9841 -11.0983 2.4063 -0.7258 0.0000 0.0000 0.0000 2.2533 4.9864 -12.7243 8.6923 13.5196 26.5063 0.9956 -0.0080 -6.1696 0.0000 0.0000 -0.0000
-3.7422 39.1700 -34.1235 -1.4076 2.2943 -7.8955 0.0000 0.0000 0.0000 5.8662 -1.9757 3.3099 -2.1987 -8.1543 16.5855 -2.2345 -0.0656 -12.3560 0.0000 -0.0000 0.0000 0.0000 0.0000 0.0000 4.6529 0.2899 8.0986 0.9011 0.2495 -0.6794 -0.0000 0.0000 -0.0000 2.8699 -2.6649 13.8371 -0.0000 0.0000 -0.0000 -34.2858 -2.4790 2.4123 -46.0192 -16.6819 -16.6033 -10.7922 5.3178 36.6359 12.9211 -4.5041 -1.0659 -0.0000 0.0000 -0.0000 33.8613 4.9950 3.3821 34.3642 16.1101 -10.7233 10.4871 9.3235 14.8905 -11.2236 2.5634 -0.7483 0.0000 0.0000 0.0000 1.8873 5.8280 -13.6575 6.2560 13.2728 18.5876 0.5859 -0.0106 -4.0319 0.0000 0.0000 -0.0000
-3.7450 39.2286 -33.2724 -1.6447 1.9625 -7.4060 0.0000 0.0000 0.0000 6.1935 -1.9867 4.8887 -1.9921 -7.9755 15.1408 -2.5054 -0.0759 -12.6700 0.0000 -0.0000 0.0000 0.0000 0.0000 0.0000 4.6581 0.4315 7.6324 0.9408 0.3686 -0.6204 -0.0000 0.0000 -0.0000 3.0354 -2.5999 13.7108 -0.0000 0.0000 -0.0000 -34.2386 -2.4446 2.3956 -46.3644 -17.0807 -16.5281 -10.7420 5.3554 36.6913 12.6154 -4.5253 -1.0417 -0.0000 0.0000 -0.0000 33.8117 4.9929 3.3792 34.5733 16.4864 -8.7074 10.1899 10.5340 13.0528 -11.4370 2.5761 -0.7641 0.0000 0.0000 0.0000 1.8345 6.6358 -14.1845 3.4642 12.5521 10.8182 -1.1737 0.1077 -2.1120 0.0000 0.0000 -0.0000
-3.7279 39.2880 -32.4233 -1.9494 1.6369 -6.9236 0.0000 0.0000 0.0000 6.4957 -2.0573 6.6696 -1.6531 -7.7166 13.2605 -2.8627 -0.0847 -12.8319 0.0000 -0.0000 0.0000 0.0000 0.0000 0.0000 4.6923 0.4983 7.1996 1.0105 0.4000 -0.5557 -0.0000 0.0000 -0.0000 3.1922 -2.5870 13.4366 -0.0000 0.0000 -0.0000 -34.3552 -2.4269 2.3955 -46.4994 -17.0770 -16.5440 -10.7345 5.4132 36.7636 12.6147 -4.5400 -1.0432 -0.0000 0.0000 -0.0000 33.7767 4.9966 3.3821 34.9156 16.5574 -7.4095 10.0394 11.1144 12.1602 -11.5385 2.5019 -0.7644 0.0000 0.0000 0.0000 2.9580 3.9832 -14.4009 0.8986 13.9007 4.1228 -2.9860 0.2758 -0.9623 0.0000 0.0000 -0.0000
-3.6838 39.2920 -31.5415 -2.2077 1.3189 -6.4720 0.0000 0.0000 0.0000 6.6860 -2.2028 8.3262 -1.4094 -7.3766 11.8320 -2.8849 -0.0969 -13.2510 0.0000 -0.0000 0.0000 0.0000 0.0000 0.0000 4.7541 0.5071 6.7731 0.9510 0.3938 -0.4726 -0.0000 0.0000 -0.0000 3.3324 -2.7112 13.0499 -0.0000 0.0000 -0.0000 -34.6160 -2.4554 2.4228 -46.3426 -16.7485 -16.7125 -10.7221 5.4028 37.0336 12.9179 -4.5286 -1.0682 -0.0000 0.0000 -0.0000 33.8896 5.0133 3.3982 35.2617 16.2211 -7.2016 10.0992 11.0367 12.4610 -11.3526 2.5434 -0.7553 0.0000 0.0000 0.0000 3.2764 2.2308 -14.7336 0.0770 13.7987 -0.7552 -4.3301 0.4012 -0.8647 0.0000 0.0000 -0.0000
